# xmcd CD database file
#
# Track frame offsets:
#	150
#	16109
#	64575
#
# Disc length: 1384 seconds
#
# Revision: 1
# Processed by: cddbd v1.5.2PL0 Copyright (c) Steve Scherf et al.
# Submitted via: CDex 1.70beta2
#
DISCID=18056603
DTITLE=Cornershop - Staging [CD1)
DYEAR=2002
DGENRE=Other
TTITLE0=Staging (Radio Edit)
TTITLE1=Green P's
TTITLE2=Lessons learned From Rocky I To Rocky III (Video)
EXTD=YEAR: 2002
EXTT0=
EXTT1=
EXTT2=
PLAYORDER=
